<svg xmlns="http://www.w3.org/2000/svg" fill="none" viewBox="0 0 773 58"><path fill="#616CE3" d="M36.654 11.11c-16.247 0-24.101 5.004-24.101 18.017 0 12.936 7.854 17.941 24.101 17.941 13.86 0 21.637-3.619 23.639-12.705h12.243C70.457 50.995 58.06 57.617 36.654 57.617 13.169 57.617.541 49.61.541 29.127.541 8.568 13.169.56 36.654.56c21.406 0 33.803 6.622 35.882 23.254H60.293c-2.002-9.086-9.779-12.705-23.639-12.705ZM89.571 2.1v43.351h47.355v10.55H77.559V2.1h12.012ZM142.302 56V2.1h12.089V56h-12.089ZM195.166 11.11c-16.247 0-24.101 5.004-24.101 18.017 0 12.936 7.854 17.941 24.101 17.941 13.86 0 21.637-3.619 23.639-12.705h12.243c-2.079 16.632-14.476 23.254-35.882 23.254-23.485 0-36.113-8.008-36.113-28.49C159.053 8.568 171.681.56 195.166.56c21.406 0 33.803 6.622 35.882 23.254h-12.243c-2.002-9.086-9.779-12.705-23.639-12.705ZM303.215 2.177l-33.572 23.87L303.292 56h-17.864l-25.256-22.56-12.089 9.393V56h-12.012V2.177h12.012V27.28l35.189-25.102h19.943ZM340.264 2.1c22.715 0 34.958 7.546 34.958 27.027 0 19.404-12.243 26.95-34.958 26.95h-34.111V2.1h34.111Zm0 43.505c15.4 0 22.869-4.62 22.869-16.478 0-11.935-7.469-16.478-22.869-16.478h-22.099v32.956h22.099ZM380.22 2.1h61.6v10.55h-49.588v11.164h46.585v10.55h-46.585v11.241h49.588v10.472h-61.6V2.1ZM523.92 56l-7.469-10.703h-48.048L460.857 56h-14.63l37.73-53.9h16.94l37.73 53.9H523.92Zm-48.125-21.252h33.264l-16.632-23.716-16.632 23.716ZM623.892 2.177v53.9H611.88V14.805l-24.948 41.272h-7.854L554.13 14.805v41.272h-12.089v-53.9h16.477l24.487 40.117 24.486-40.117h16.401ZM664.762.56c23.485 0 36.113 8.008 36.113 28.567 0 20.482-12.628 28.49-36.113 28.49s-36.19-8.008-36.19-28.49c0-20.559 12.705-28.567 36.19-28.567Zm0 46.508c16.247 0 24.101-5.005 24.101-17.94 0-13.014-7.854-18.019-24.101-18.019-16.324 0-24.178 5.005-24.178 18.018 0 12.936 7.854 17.941 24.178 17.941ZM772.958 21.735c0 7.931-5.467 14.784-13.321 17.864L772.881 56h-14.168l-11.242-14.553h-29.568V56h-12.012V2.1h44.121c12.705 0 22.946 8.778 22.946 19.635Zm-22.946 9.163c5.544 0 10.087-4.08 10.087-9.163 0-5.005-4.543-9.086-10.087-9.086h-32.109V30.9h32.109Z"/></svg>