<svg xmlns="http://www.w3.org/2000/svg" viewBox="0 0 541 488.001" preserveAspectRatio="none"><path fill="#91a8eb" d="M541 488.001H0v-488h541v10.313h-49.674a62.337 62.337 0 0 0-32.89-9.349H63.916a62.564 62.564 0 0 0-62.487 62.5v268.812a62.381 62.381 0 0 0 27.787 51.982 62.991 62.991 0 0 0 12.737 13.521 62.922 62.922 0 0 0 16.52 9.362l197.258 75.249a62.964 62.964 0 0 0 44.89 0l126.031-48.077H541v53.687Zm-289.564-18.736a62.332 62.332 0 0 1-8.236-1.881 62.839 62.839 0 0 0 8.236 1.881Zm269.408-133.82c.053-1.055.08-2.121.08-3.168V63.465a62.018 62.018 0 0 0-12.156-37.047h.006a61.986 61.986 0 0 1 12.152 37.047v268.813c0 1.047-.028 2.113-.082 3.167Z"/><path fill="#e4e7ee" d="m425.149 434.313 72.6-27.73a63.205 63.205 0 0 0 40.4-58.734V79.633a62.49 62.49 0 0 0-30.127-53.7 62.32 62.32 0 0 0-17.324-15.62h50.3v424Z"/><path fill="#fe91e8" d="M278.249 486.53a62.776 62.776 0 0 1-22.452-4.136L58.481 407.145a62.919 62.919 0 0 1-16.525-9.362 62.965 62.965 0 0 1-12.746-13.528 62.619 62.619 0 0 0 12.448 6.423l197.316 75.245a62.507 62.507 0 0 0 44.547 0l197.317-75.249a62.844 62.844 0 0 0 40.231-58.4V63.465a61.935 61.935 0 0 0-12.74-37.822 63.411 63.411 0 0 1 21.921 22.511 62.668 62.668 0 0 1 6.145 14.841 63.174 63.174 0 0 1 2.175 16.471v268.811a62.979 62.979 0 0 1-40.552 58.865L300.7 482.391a62.766 62.766 0 0 1-22.451 4.139Z"/><path fill="none" stroke="#000" d="M1.429 63.465A62.5 62.5 0 0 1 63.936.965h394.63a62.5 62.5 0 0 1 62.5 62.5v268.812a62.5 62.5 0 0 1-40.231 58.4l-197.313 75.246a62.5 62.5 0 0 1-44.547 0L41.659 390.674a62.5 62.5 0 0 1-40.231-58.4Z"/></svg>