<svg xmlns="http://www.w3.org/2000/svg" viewBox="0 0 220.3 168.692" preserveAspectRatio="none"><path fill="#f9f5f2" d="M219.772 168.692H.519v-55.7c.153 11.931 8.82 22.687 21.57 26.763l76.869 24.573a36.694 36.694 0 0 0 11.187 1.733 36.682 36.682 0 0 0 11.186-1.733l76.869-24.573c12.894-4.122 21.563-15 21.571-27.063v56Z"/><path fill="none" stroke="#000" d="M219.8 111.692v57M.5 111.692v57M.519 29.174C.519 13.397 15.119.5 33.276.5h153.738c18.155 0 32.757 12.9 32.757 28.674v82.781c0 12.025-8.586 22.819-21.571 26.95l-76.869 24.457a37.148 37.148 0 0 1-22.373 0l-76.869-24.454C9.105 134.777.519 123.983.519 111.955Z"/></svg>