<svg xmlns="http://www.w3.org/2000/svg" viewBox="0 0 250 207.656"><path fill="#f9f5f2" d="M249.498 207.656h-249v-66h.128c1.2 13.822 10.781 25.812 24.415 30.547l87.257 30.297a38.628 38.628 0 0 0 12.7 2.134 38.635 38.635 0 0 0 12.706-2.134l87.252-30.3c13.634-4.735 23.218-16.725 24.416-30.547h.128v66Z"/><path fill="none" stroke="#000" d="M249.401 141.612v66M.501 139.612l.3 68M.5 36.142C.5 16.478 17.156.5 37.748.5h174.5c20.592 0 37.249 15.978 37.249 35.642v102.555c0 14.985-9.8 28.385-24.544 33.5l-87.251 30.294a38.817 38.817 0 0 1-25.411 0l-87.248-30.289C10.3 167.082.5 153.682.5 138.697Z"/></svg>