<svg xmlns="http://www.w3.org/2000/svg" viewBox="0 0 282 278"><path fill="#91a8eb" d="M282 278H0V0h282v278ZM43.75.76c-.73 0-1.3 0-1.72.03-5.07.21-8.55.91-11.29 2.27A44.17 44.17 0 0 0 12.55 15.8a41.73 41.73 0 0 0-8.9 16.44l-.27 1.07a47.1 47.1 0 0 0-1.11 4.89c-.15.94-.25 2.02-.36 3.18-.1.96-.19 1.95-.31 2.91v37.56l-.2 99.18a39.92 39.92 0 0 0 .93 8.03 48.55 48.55 0 0 0 7.31 17.39 44.45 44.45 0 0 0 12.4 12.35 25.97 25.97 0 0 0 6 3l97.53 39.17c.08.03 7.9 3.2 15.23 3.27h.27a41.01 41.01 0 0 0 14.18-2.97l96.51-38.36a32.43 32.43 0 0 0 6.61-3.23 48.73 48.73 0 0 0 13.47-12.5 45.73 45.73 0 0 0 7.76-18.12 43.9 43.9 0 0 0 .91-8.85l-.02-134.39a37.57 37.57 0 0 0-1.06-9.7 49.81 49.81 0 0 0-10.54-20.94 39.14 39.14 0 0 0-28.92-14.1h-.55L48.71.78h-2.74L43.75.75Z"/><path fill="#fe91e8" d="M141.5 277.6a38.73 38.73 0 0 1-14.41-2.78l-97.73-39a41.22 41.22 0 0 1-11.4-6.9 44.92 44.92 0 0 1-8.8-10.14 48.53 48.53 0 0 1-5.66-12.55 50.76 50.76 0 0 1-2-14.16c0-134.44.5-13 .5-13 0 19.31 11.07 36.7 27.55 43.28l97.72 39a38.21 38.21 0 0 0 14.23 2.76 38.22 38.22 0 0 0 14.23-2.75l97.72-39c16.48-6.58 27.55-23.97 27.55-43.29 0 0 .5-121.43.5 13a50.76 50.76 0 0 1-2 14.16 48.53 48.53 0 0 1-5.66 12.56 44.92 44.92 0 0 1-8.8 10.13 41.22 41.22 0 0 1-11.4 6.9l-97.72 39a38.72 38.72 0 0 1-14.42 2.79Z"/><path fill="none" stroke="#000" d="M1.5 47.03C1.5 21.56 20.25 1 43.28 1h195.44c23.03 0 41.78 20.56 41.78 46.03v132.04c0 19.4-11.04 36.69-27.55 43.28l-97.72 39a38.15 38.15 0 0 1-28.46 0l-97.72-39C12.53 215.76 1.5 198.47 1.5 179.07Z"/></svg>