<svg xmlns="http://www.w3.org/2000/svg" viewBox="0 0 540 488" preserveAspectRatio="none"><path fill="#91a8eb" d="M539 488v-1H1V0h539v488ZM1.428 63.464v268.813a62.342 62.342 0 0 0 27.785 51.976 62.9 62.9 0 0 0 29.265 22.888l197.3 75.249a62.991 62.991 0 0 0 44.9 0l197.3-75.249a62.981 62.981 0 0 0 40.549-58.865V79.465A62.956 62.956 0 0 0 508.3 25.642 62.269 62.269 0 0 0 460.649 1H61.817A62.224 62.224 0 0 0 1.428 63.464ZM1 488H0V0h1v487h538v1ZM508.851 26.381a61.943 61.943 0 0 1 9.787 19.836 62.033 62.033 0 0 0-9.787-19.836Z"/><path fill="#fe91e8" d="M278.232 486.53a62.768 62.768 0 0 1-22.451-4.136l-197.3-75.249a62.913 62.913 0 0 1-16.524-9.362 62.963 62.963 0 0 1-12.745-13.528 62.614 62.614 0 0 0 12.447 6.423l197.305 75.245a62.5 62.5 0 0 0 44.544 0l197.3-75.249a62.844 62.844 0 0 0 40.228-58.4V63.465a61.938 61.938 0 0 0-12.739-37.822 63.41 63.41 0 0 1 21.92 22.511 62.671 62.671 0 0 1 6.147 14.84 63.179 63.179 0 0 1 2.175 16.471v268.812a62.978 62.978 0 0 1-40.55 58.865l-197.3 75.249a62.758 62.758 0 0 1-22.457 4.139Z"/><path fill="none" stroke="#000" d="M1.429 63.465a62.5 62.5 0 0 1 62.5-62.5h394.607a62.5 62.5 0 0 1 62.5 62.5v268.812a62.5 62.5 0 0 1-40.228 58.4l-197.3 75.249a62.5 62.5 0 0 1-44.544 0l-197.3-75.249a62.5 62.5 0 0 1-40.228-58.4Z"/></svg>