<svg xmlns="http://www.w3.org/2000/svg" viewBox="0 0 220.252 167.705" preserveAspectRatio="none"><path fill="#f9f5f2" d="M219.753 167.705H.5v-55.431c.153 11.874 8.82 22.577 21.57 26.634l76.869 24.454a36.857 36.857 0 0 0 11.187 1.724 36.846 36.846 0 0 0 11.186-1.724l76.869-24.454c12.894-4.1 21.563-14.925 21.571-26.932v55.729Z"/><path fill="none" stroke="#000" d="M.5 29.174C.5 13.397 15.1.5 33.257.5h153.738c18.155 0 32.757 12.9 32.757 28.674v82.781c0 12.025-8.586 22.819-21.571 26.95l-76.869 24.457a37.148 37.148 0 0 1-22.373 0L22.07 138.908C9.086 134.777.5 123.983.5 111.955Z"/></svg>